<svg width="81" height="60" viewBox="0 0 81 60" fill="none" xmlns="http://www.w3.org/2000/svg">
<g clip-path="url(#clip0_3_10)">
<path d="M0.5 0H80.5V60H0.5V0Z" fill="#EE1C25"/>
<path d="M10.1001 22.2L15.5 6L20.8999 22.2L6.50011 12.3H24.4999L10.1001 22.2Z" fill="#FFFF00"/>
<path d="M33.5214 6.31046L27.9641 7.54197L31.671 3.22239L31.3074 9.03598L28.2235 3.8892L33.5214 6.31046Z" fill="#FFFF00"/>
<path d="M39.1299 13.4184L33.53 12.3982L38.622 9.85442L36.0322 15.072L35.1858 9.13197L39.1299 13.4184Z" fill="#FFFF00"/>
<path d="M38.3125 23.3905L33.6157 20.1751L39.3024 19.9293L34.8098 23.6369L36.4596 17.8682L38.3125 23.3905Z" fill="#FFFF00"/>
<path d="M31.2486 29.9051L28.1581 25.1251L33.4985 27.0948L27.9225 28.7795L31.6723 24.0956L31.2486 29.9051Z" fill="#FFFF00"/>
</g>
<defs>
<clipPath id="clip0_3_10">
<rect width="80" height="60" fill="white" transform="translate(0.5)"/>
</clipPath>
</defs>
</svg>
