<svg width="81" height="60" viewBox="0 0 81 60" fill="none" xmlns="http://www.w3.org/2000/svg">
<g clip-path="url(#clip0_3_17)">
<mask id="mask0_3_17" style="mask-type:luminance" maskUnits="userSpaceOnUse" x="0" y="0" width="81" height="61">
<path d="M0.498436 0.00312424H80.5023V60.0031H0.498436V0.00312424Z" fill="white"/>
</mask>
<g mask="url(#mask0_3_17)">
<path fill-rule="evenodd" clip-rule="evenodd" d="M0.498436 0.00312424H80.5141V60.0031H0.498436V0.00312424Z" fill="white"/>
<path fill-rule="evenodd" clip-rule="evenodd" d="M9.26482 18.2268L17.5875 5.74746L19.6674 7.13457L11.3447 19.6139L9.26482 18.2268ZM12.3846 20.3074L20.7073 7.82813L22.7872 9.21524L14.4645 21.6946L12.3846 20.3074ZM15.5045 22.3881L23.8271 9.9088L25.907 11.2959L17.5844 23.7752L15.5045 22.3881Z" fill="black"/>
<path fill-rule="evenodd" clip-rule="evenodd" d="M55.0223 48.7432L63.345 36.2639L65.4249 37.651L57.1022 50.1303L55.0223 48.7432ZM58.1421 50.8239L66.4648 38.3446L68.5447 39.7317L60.222 52.211L58.1421 50.8239ZM61.262 52.9046L69.5846 40.4253L71.6645 41.8124L63.3419 54.2917L61.262 52.9046Z" fill="black"/>
<path fill-rule="evenodd" clip-rule="evenodd" d="M58.1437 41.81L68.5431 48.7456Z" fill="black"/>
<path d="M58.1437 41.81L68.5431 48.7456" stroke="white" stroke-width="1.25"/>
<path fill-rule="evenodd" clip-rule="evenodd" d="M27.9854 21.6969C30.1927 18.3872 33.6244 16.0899 37.5255 15.3103C41.4266 14.5308 45.4776 15.3329 48.7873 17.5403C52.0971 19.7476 54.3944 23.1793 55.1739 27.0804C55.9534 30.9815 55.1513 35.0325 52.944 38.3422L27.9854 21.6969Z" fill="#CD2E3A"/>
<path fill-rule="evenodd" clip-rule="evenodd" d="M27.9854 21.6969C25.778 25.0066 24.9759 29.0576 25.7555 32.9588C26.535 36.8599 28.8323 40.2916 32.142 42.4989C35.4517 44.7062 39.5027 45.5083 43.4039 44.7288C47.305 43.9493 50.7367 41.652 52.944 38.3422C54.0476 36.6874 54.4487 34.6619 54.0589 32.7113C53.6692 30.7607 52.5205 29.0449 50.8657 27.9413C49.2108 26.8376 47.1853 26.4365 45.2347 26.8263C43.2842 27.2161 41.5683 28.3647 40.4647 30.0196L27.9854 21.6969Z" fill="#0047A0"/>
<path d="M40.4647 30.0196C42.7629 26.5735 41.8324 21.9168 38.3864 19.6186C34.9403 17.3203 30.2836 18.2508 27.9854 21.6969C25.6871 25.143 26.6176 29.7997 30.0637 32.0979C33.5097 34.3961 38.1664 33.4656 40.4647 30.0196Z" fill="#CD2E3A"/>
<path fill-rule="evenodd" clip-rule="evenodd" d="M17.6219 54.2964L9.29921 41.8171L11.3791 40.43L19.7018 52.9093L17.6219 54.2964ZM20.7417 52.2158L12.419 39.7365L14.4989 38.3493L22.8216 50.8287L20.7417 52.2158ZM23.8615 50.1351L15.5389 37.6558L17.6188 36.2687L25.9414 48.748L23.8615 50.1351Z" fill="black"/>
<path fill-rule="evenodd" clip-rule="evenodd" d="M63.3794 23.78L55.0567 11.3007L57.1366 9.91356L65.4593 22.3929L63.3794 23.78ZM66.4992 21.6993L58.1765 9.22L60.2564 7.83289L68.5791 20.3122L66.4992 21.6993ZM69.619 19.6186L61.2964 7.13933L63.3762 5.75222L71.6989 18.2315L69.619 19.6186Z" fill="black"/>
<path fill-rule="evenodd" clip-rule="evenodd" d="M16.0604 46.3229L19.1802 44.2422ZM58.1781 18.2339L61.8179 15.8064ZM64.9377 13.7258L68.0576 11.6451Z" fill="black"/>
<path d="M16.0604 46.3229L19.1802 44.2422M58.1781 18.2339L61.8179 15.8064M64.9377 13.7258L68.0576 11.6451" stroke="white" stroke-width="1.25"/>
</g>
</g>
<defs>
<clipPath id="clip0_3_17">
<rect width="80" height="60" fill="white" transform="translate(0.5)"/>
</clipPath>
</defs>
</svg>
