<svg width="81" height="60" viewBox="0 0 81 60" fill="none" xmlns="http://www.w3.org/2000/svg">
<g clip-path="url(#clip0_3_40)">
<path d="M32.5 0H80.5V60H32.5V0Z" fill="#FF0000"/>
<path d="M0.5 0H32.5V60H0.5V0Z" fill="#006600"/>
<path fill-rule="evenodd" clip-rule="evenodd" d="M42.9375 38.275C38.9 38.15 20.4375 26.625 20.3125 24.775L21.325 23.0875C23.1625 25.75 42.0375 36.9625 43.9 36.5625L42.9375 38.275Z" fill="#FFFF00" stroke="black" stroke-width="0.075" stroke-linecap="round" stroke-linejoin="round"/>
<path fill-rule="evenodd" clip-rule="evenodd" d="M21.1125 22.85C20.75 23.825 25.9375 27.025 32.1625 30.825C38.4 34.6125 43.775 36.95 44.1625 36.625L44.35 36.275C44.275 36.4 44.1 36.4375 43.8125 36.35C42.125 35.8625 37.7375 33.85 32.3 30.55C26.85 27.25 22.125 24.2125 21.3875 22.925C21.33 22.8043 21.3042 22.6709 21.3125 22.5375H21.2875L21.1375 22.8125L21.1125 22.85ZM43.025 38.325C42.9625 38.45 42.825 38.45 42.5875 38.425C41.0875 38.2625 36.5125 36.0375 31.1 32.8C24.8 29.025 19.6 25.6 20.175 24.7L20.325 24.425L20.35 24.4375C19.85 25.9625 30.6125 32.1125 31.25 32.5125C37.475 36.3625 42.725 38.625 43.1875 38.0375L43.025 38.325Z" fill="#FFFF00" stroke="black" stroke-width="0.075" stroke-linecap="round" stroke-linejoin="round"/>
<path fill-rule="evenodd" clip-rule="evenodd" d="M32.525 25.9C36.55 25.8625 41.525 25.35 44.4 24.2L43.775 23.2C42.0875 24.1375 37.0875 24.7625 32.4875 24.85C27.0625 24.8 23.225 24.2875 21.3 23L20.725 24.075C24.25 25.575 27.875 25.8875 32.525 25.9Z" fill="#FFFF00" stroke="black" stroke-width="0.075" stroke-linecap="round" stroke-linejoin="round"/>
<path fill-rule="evenodd" clip-rule="evenodd" d="M44.5625 24.225C44.4625 24.3875 42.5875 25.025 39.8375 25.5C37.4133 25.8674 34.9644 26.0471 32.5125 26.0375C30.1634 26.0463 27.8163 25.896 25.4875 25.5875C22.6 25.1375 21.1125 24.5125 20.55 24.2875L20.6875 24.0125C22.275 24.6375 23.775 25.0125 25.525 25.2875C27.8368 25.5997 30.1672 25.7542 32.5 25.75C34.9392 25.7526 37.3751 25.5729 39.7875 25.2125C42.6 24.75 44.1375 24.1625 44.3625 23.9L44.5625 24.2375V24.225ZM44.0125 23.2125C43.7125 23.4625 42.1875 24 39.5125 24.425C37.2026 24.7592 34.8715 24.9263 32.5375 24.925C29.7875 24.925 27.525 24.725 25.8125 24.475C23.0875 24.125 21.6375 23.475 21.1125 23.3L21.275 23.025C21.6875 23.2375 23.075 23.8 25.8375 24.1875C28.0582 24.485 30.297 24.627 32.5375 24.6125C34.8549 24.6132 37.1693 24.4461 39.4625 24.1125C42.15 23.7375 43.6 23.0625 43.825 22.8875L44.0125 23.2125ZM19.2875 30.75C21.7625 32.0875 27.275 32.75 32.4875 32.8C37.2375 32.8125 43.4125 32.075 45.725 30.85L45.6625 29.5125C44.9375 30.6375 38.3125 31.725 32.4375 31.6875C26.5625 31.6375 21.1 30.7375 19.275 29.5625V30.75" fill="#FFFF00"/>
<path d="M19.2875 30.75C21.7625 32.0875 27.275 32.75 32.4875 32.8C37.2375 32.8125 43.4125 32.075 45.725 30.85L45.6625 29.5125C44.9375 30.6375 38.3125 31.725 32.4375 31.6875C26.5625 31.6375 21.1 30.7375 19.275 29.5625V30.75M44.5625 24.225C44.4625 24.3875 42.5875 25.025 39.8375 25.5C37.4133 25.8674 34.9644 26.0471 32.5125 26.0375C30.1634 26.0463 27.8163 25.896 25.4875 25.5875C22.6 25.1375 21.1125 24.5125 20.55 24.2875L20.6875 24.0125C22.275 24.6375 23.775 25.0125 25.525 25.2875C27.8368 25.5997 30.1672 25.7542 32.5 25.75C34.9392 25.7526 37.3751 25.5729 39.7875 25.2125C42.6 24.75 44.1375 24.1625 44.3625 23.9L44.5625 24.2375V24.225ZM44.0125 23.2125C43.7125 23.4625 42.1875 24 39.5125 24.425C37.2026 24.7592 34.8715 24.9263 32.5375 24.925C29.7875 24.925 27.525 24.725 25.8125 24.475C23.0875 24.125 21.6375 23.475 21.1125 23.3L21.275 23.025C21.6875 23.2375 23.075 23.8 25.8375 24.1875C28.0582 24.485 30.297 24.627 32.5375 24.6125C34.8549 24.6132 37.1693 24.4461 39.4625 24.1125C42.15 23.7375 43.6 23.0625 43.825 22.8875L44.0125 23.2125Z" stroke="black" stroke-width="0.075" stroke-linecap="round" stroke-linejoin="round"/>
<path fill-rule="evenodd" clip-rule="evenodd" d="M45.85 30.5625V30.875C45.5 31.3 43.325 31.925 40.6 32.375C37.8928 32.7641 35.16 32.948 32.425 32.925C29.8316 32.9471 27.2405 32.7674 24.675 32.3875C22.7607 32.1663 20.8901 31.6607 19.125 30.8875V30.525C20.3375 31.325 23.6125 31.925 24.7125 32.1C26.6875 32.4 29.225 32.625 32.425 32.625C35.7875 32.625 38.475 32.3875 40.55 32.075C42.5125 31.7875 45.3 31.05 45.85 30.5625ZM45.85 29.4375V29.75C45.5 30.1625 43.325 30.7875 40.6 31.2375C37.8931 31.6308 35.1603 31.8189 32.425 31.8C29.8318 31.8153 27.2412 31.6356 24.675 31.2625C22.7607 31.0413 20.8901 30.5357 19.125 29.7625V29.3875C20.3375 30.2 23.625 30.7875 24.7125 30.9625C27.266 31.3365 29.8443 31.5162 32.425 31.5C35.7875 31.5 38.4875 31.25 40.55 30.9375C42.5125 30.6625 45.3 29.925 45.85 29.4375ZM32.475 38.0375C26.775 38.0125 21.8875 36.4875 20.85 36.2375L21.6 37.4125C25.1061 38.6543 28.8059 39.2596 32.525 39.2C36.8625 39.075 40.65 38.7375 43.3125 37.4375L44.0875 36.2125C42.275 37.075 36.0875 38.0375 32.4625 38.0375" fill="#FFFF00"/>
<path d="M32.475 38.0375C26.775 38.0125 21.8875 36.4875 20.85 36.2375L21.6 37.4125C25.1061 38.6543 28.8059 39.2596 32.525 39.2C36.8625 39.075 40.65 38.7375 43.3125 37.4375L44.0875 36.2125C42.275 37.075 36.0875 38.0375 32.4625 38.0375M45.85 30.5625V30.875C45.5 31.3 43.325 31.925 40.6 32.375C37.8928 32.7641 35.16 32.948 32.425 32.925C29.8316 32.9471 27.2405 32.7674 24.675 32.3875C22.7607 32.1663 20.8901 31.6607 19.125 30.8875V30.525C20.3375 31.325 23.6125 31.925 24.7125 32.1C26.6875 32.4 29.225 32.625 32.425 32.625C35.7875 32.625 38.475 32.3875 40.55 32.075C42.5125 31.7875 45.3 31.05 45.85 30.5625ZM45.85 29.4375V29.75C45.5 30.1625 43.325 30.7875 40.6 31.2375C37.8931 31.6308 35.1603 31.8189 32.425 31.8C29.8318 31.8153 27.2412 31.6356 24.675 31.2625C22.7607 31.0413 20.8901 30.5357 19.125 29.7625V29.3875C20.3375 30.2 23.625 30.7875 24.7125 30.9625C27.266 31.3365 29.8443 31.5162 32.425 31.5C35.7875 31.5 38.4875 31.25 40.55 30.9375C42.5125 30.6625 45.3 29.925 45.85 29.4375Z" stroke="black" stroke-width="0.075" stroke-linecap="round" stroke-linejoin="round"/>
<path fill-rule="evenodd" clip-rule="evenodd" d="M43.6125 37.1625C43.4987 37.3311 43.382 37.4978 43.2625 37.6625C42.0125 38.1125 40.0125 38.5875 39.1875 38.7125C36.9737 39.125 34.7269 39.3342 32.475 39.3375C27.425 39.2625 23.2875 38.275 21.35 37.425L21.1875 37.1625L21.2125 37.1125L21.475 37.225C25.0325 38.4022 28.7528 39.0139 32.5 39.0375C34.85 39.0375 37.1875 38.775 39.075 38.4375C41.975 37.85 43.15 37.4125 43.5125 37.2125L43.6 37.1625H43.6125ZM44.275 36.0625C44.1927 36.2089 44.1094 36.3548 44.025 36.5C43.35 36.75 41.525 37.275 38.8625 37.65C37.1125 37.8875 36.025 38.125 32.5375 38.1875C28.5508 38.1475 24.5886 37.5586 20.7625 36.4375L20.625 36.125C24.5123 37.1994 28.5179 37.7872 32.55 37.875C35.7375 37.8125 37.1 37.575 38.8375 37.3375C41.9375 36.8625 43.5 36.3375 43.9625 36.2C43.9628 36.1917 43.9628 36.1833 43.9625 36.175L44.2875 36.05L44.275 36.0625Z" fill="#FFFF00" stroke="black" stroke-width="0.075" stroke-linecap="round" stroke-linejoin="round"/>
<path fill-rule="evenodd" clip-rule="evenodd" d="M44.35 29.7C44.3625 33.45 42.4375 36.825 40.9 38.3C38.6292 40.5147 35.5966 41.7761 32.425 41.825C28.6375 41.8875 25.075 39.425 24.1125 38.3375C21.9593 36.0541 20.7338 33.0505 20.675 29.9125C20.9 25.8125 22.5125 22.9625 24.8375 21C27.0961 19.1407 29.9372 18.1361 32.8625 18.1625C34.5701 18.2453 36.2417 18.6839 37.77 19.4502C39.2983 20.2165 40.6496 21.2936 41.7375 22.6125C43.3 24.5125 43.9875 26.575 44.35 29.7ZM32.45 16.875C35.9469 16.8749 39.302 18.2571 41.784 20.7204C44.266 23.1837 45.6736 26.5282 45.7 30.025C45.7 31.7601 45.3582 33.4782 44.6943 35.0812C44.0303 36.6842 43.057 38.1408 41.8301 39.3676C40.6033 40.5945 39.1467 41.5678 37.5437 42.2318C35.9407 42.8957 34.2226 43.2375 32.4875 43.2375C30.7524 43.2375 29.0343 42.8957 27.4313 42.2318C25.8283 41.5678 24.3717 40.5945 23.1449 39.3676C21.918 38.1408 20.9447 36.6842 20.2807 35.0812C19.6168 33.4782 19.275 31.7601 19.275 30.025C19.2625 22.775 25.1875 16.875 32.45 16.875Z" fill="#FFFF00" stroke="black" stroke-width="0.075" stroke-linecap="round" stroke-linejoin="round"/>
<path fill-rule="evenodd" clip-rule="evenodd" d="M32.4875 16.8125C39.7625 16.8125 45.6875 22.7375 45.6875 30.0125C45.6875 37.2875 39.7625 43.2125 32.5 43.2125C25.2375 43.2125 19.3 37.2875 19.3 30.0125C19.3 22.7375 25.225 16.8125 32.5 16.8125H32.4875ZM19.575 30C19.575 37.1 25.4125 42.9125 32.4875 42.9125C39.5625 42.9125 45.4 37.1 45.4 30C45.4 22.9 39.5625 17.0875 32.4875 17.0875C25.4125 17.0875 19.575 22.9 19.575 30Z" fill="#FFFF00" stroke="black" stroke-width="0.075" stroke-linecap="round" stroke-linejoin="round"/>
<path fill-rule="evenodd" clip-rule="evenodd" d="M32.5 17.9125C35.7028 17.9224 38.7715 19.1991 41.0362 21.4638C43.3009 23.7285 44.5776 26.7972 44.5875 30C44.5776 33.2039 43.3014 36.274 41.037 38.5407C38.7726 40.8074 35.7039 42.0868 32.5 42.1C25.875 42.1 20.4125 36.65 20.4125 30C20.4257 26.7982 21.7034 23.7314 23.9674 21.4674C26.2314 19.2034 29.2982 17.9257 32.5 17.9125ZM20.7 30C20.7 36.5 26.025 41.8 32.5 41.8C38.975 41.8 44.3 36.4875 44.3 30C44.3 23.5 38.975 18.2 32.5 18.2C29.3745 18.2132 26.3808 19.4606 24.1707 21.6707C21.9606 23.8808 20.7132 26.8745 20.7 30Z" fill="#FFFF00" stroke="black" stroke-width="0.075" stroke-linecap="round" stroke-linejoin="round"/>
<path fill-rule="evenodd" clip-rule="evenodd" d="M33.0375 16.75H31.9V43.2875H33.025L33.0375 16.75Z" fill="#FFFF00" stroke="black" stroke-width="0.075" stroke-linecap="round" stroke-linejoin="round"/>
<path fill-rule="evenodd" clip-rule="evenodd" d="M32.9125 16.6H33.2V43.4375H32.925V16.6H32.9125ZM31.7875 16.6H32.0875V43.4375H31.8V16.6H31.7875Z" fill="#FFFF00" stroke="black" stroke-width="0.075" stroke-linecap="round" stroke-linejoin="round"/>
<path fill-rule="evenodd" clip-rule="evenodd" d="M45.7 30.525V29.55L44.9 28.8L40.3625 27.6L33.8375 26.9375L25.9625 27.3375L20.3625 28.6625L19.2375 29.5V30.4875L22.1 29.2L28.9 28.1375H35.4375L40.2375 28.6625L43.5625 29.4625L45.7 30.525Z" fill="#FFFF00" stroke="black" stroke-width="0.075" stroke-linecap="round" stroke-linejoin="round"/>
<path fill-rule="evenodd" clip-rule="evenodd" d="M32.5 27.975C35.6125 27.975 38.625 28.2625 41.0375 28.725C43.5125 29.225 45.25 29.85 45.85 30.5375V30.8875C45.125 30.0125 42.7875 29.3875 40.975 29.0125C38.6 28.5625 35.6 28.2625 32.4875 28.2625C29.225 28.2625 26.175 28.5875 23.825 29.0375C21.95 29.4125 19.4375 30.1625 19.125 30.8875V30.525C19.2875 30.025 21.1625 29.275 23.7875 28.7375C26.15 28.275 29.2 27.975 32.4875 27.975H32.5ZM32.5 26.8375C35.3625 26.8318 38.2198 27.0828 41.0375 27.5875C43.5125 28.0875 45.25 28.7125 45.85 29.4125V29.75C45.125 28.8875 42.7875 28.25 40.975 27.8875C38.6 27.425 35.6 27.1375 32.4875 27.1375C29.5864 27.1283 26.6907 27.3878 23.8375 27.9125C22.025 28.25 19.4125 29.025 19.125 29.75V29.4C19.3 28.9 21.2 28.1125 23.7875 27.6125C26.1625 27.15 29.2 26.8375 32.5 26.8375ZM32.425 21.0625C37.3375 21.0375 41.625 21.75 43.5875 22.75L44.3 24C42.6 23.075 37.975 22.125 32.4375 22.25C27.925 22.2875 23.1 22.75 20.6875 24.05L21.5375 22.625C23.525 21.5875 28.2 21.0625 32.425 21.0625Z" fill="#FFFF00" stroke="black" stroke-width="0.075" stroke-linecap="round" stroke-linejoin="round"/>
<path fill-rule="evenodd" clip-rule="evenodd" d="M32.5 22.0875C35.0649 22.0442 37.6287 22.2241 40.1625 22.625C42.1625 23 44.075 23.55 44.35 23.85L44.5625 24.225C43.9 23.8 42.2375 23.3125 40.1125 22.9125C37.9875 22.5125 35.275 22.375 32.4875 22.3875C29.325 22.375 26.8625 22.5375 24.7625 22.9125C23.3149 23.1154 21.9094 23.5501 20.6 24.2L20.8125 23.8125C21.5625 23.4375 22.725 22.975 24.7 22.6125C26.8875 22.2125 29.375 22.1 32.5 22.0875ZM32.5 20.9625C35.175 20.9375 37.825 21.0875 39.8875 21.4625C41.2238 21.6609 42.517 22.0835 43.7125 22.7125L44.025 23.2125C43.5 22.625 41.525 22.0625 39.7625 21.7625C37.7125 21.4 35.175 21.2625 32.5 21.2375C30.0099 21.2153 27.5222 21.3993 25.0625 21.7875C23.7764 21.9667 22.5272 22.3507 21.3625 22.925L21.6375 22.5125C22.3625 22.1375 23.5375 21.7875 25.0125 21.5C27.4885 21.1067 29.9931 20.9227 32.5 20.95V20.9625ZM39.05 35.5C36.8834 35.1249 34.6859 34.9575 32.4875 35C24.3 35.1 21.6625 36.6875 21.3375 37.1625L20.7125 36.1625C22.8125 34.6625 27.2625 33.8125 32.5375 33.8875C35.275 33.9375 37.6375 34.125 39.6125 34.5125L39.05 35.5125" fill="#FFFF00"/>
<path d="M39.05 35.5C36.8834 35.1249 34.6859 34.9575 32.4875 35C24.3 35.1 21.6625 36.6875 21.3375 37.1625L20.7125 36.1625C22.8125 34.6625 27.2625 33.8125 32.5375 33.8875C35.275 33.9375 37.6375 34.125 39.6125 34.5125L39.05 35.5125M32.5 22.0875C35.0649 22.0442 37.6287 22.2241 40.1625 22.625C42.1625 23 44.075 23.55 44.35 23.85L44.5625 24.225C43.9 23.8 42.2375 23.3125 40.1125 22.9125C37.9875 22.5125 35.275 22.375 32.4875 22.3875C29.325 22.375 26.8625 22.5375 24.7625 22.9125C23.3149 23.1154 21.9094 23.5501 20.6 24.2L20.8125 23.8125C21.5625 23.4375 22.725 22.975 24.7 22.6125C26.8875 22.2125 29.375 22.1 32.5 22.0875ZM32.5 20.9625C35.175 20.9375 37.825 21.0875 39.8875 21.4625C41.2238 21.6609 42.517 22.0835 43.7125 22.7125L44.025 23.2125C43.5 22.625 41.525 22.0625 39.7625 21.7625C37.7125 21.4 35.175 21.2625 32.5 21.2375C30.0099 21.2153 27.5222 21.3993 25.0625 21.7875C23.7764 21.9667 22.5272 22.3507 21.3625 22.925L21.6375 22.5125C22.3625 22.1375 23.5375 21.7875 25.0125 21.5C27.4885 21.1067 29.9931 20.9227 32.5 20.95V20.9625Z" stroke="black" stroke-width="0.075" stroke-linecap="round" stroke-linejoin="round"/>
<path fill-rule="evenodd" clip-rule="evenodd" d="M32.45 34.8625C34.725 34.9 36.95 34.9875 39.1125 35.3875L38.9625 35.6625C36.9625 35.2875 34.8125 35.1625 32.4625 35.1625C29.425 35.1375 26.375 35.425 23.7125 36.1875C22.875 36.425 21.4875 36.9625 21.3375 37.4125L21.1875 37.1625C21.2375 36.8875 22.0625 36.3375 23.6375 35.9125C26.6875 35.0375 29.5375 34.875 32.45 34.8625ZM32.55 33.7125C34.9512 33.71 37.348 33.9192 39.7125 34.3375L39.55 34.625C37.2411 34.2015 34.8974 33.9964 32.55 34.0125C29.525 34.0125 26.3125 34.2375 23.3875 35.0875C22.45 35.3625 20.8125 35.9625 20.7625 36.425L20.6125 36.15C20.6375 35.725 22.05 35.1625 23.325 34.8C26.2625 33.9375 29.4875 33.725 32.55 33.7125Z" fill="#FFFF00" stroke="black" stroke-width="0.075" stroke-linecap="round" stroke-linejoin="round"/>
<path fill-rule="evenodd" clip-rule="evenodd" d="M44.175 36.3125L43.2 37.85L40.3625 35.3375L33.0375 30.4L24.7625 25.8625L20.475 24.4L21.3875 22.7L21.7 22.5375L24.3625 23.2L33.1625 27.7375L38.2375 30.9375L42.5 34L44.2375 36L44.175 36.3125Z" fill="#FFFF00" stroke="black" stroke-width="0.075" stroke-linecap="round" stroke-linejoin="round"/>
<path fill-rule="evenodd" clip-rule="evenodd" d="M20.325 24.4375C21.075 23.9375 26.6 26.3875 32.4 29.8875C38.1625 33.3875 43.6875 37.3375 43.1875 38.075L43.025 38.3375L42.95 38.4C42.9625 38.3875 43.05 38.275 42.95 38.0125C42.7 37.2 38.775 34.075 32.2875 30.15C25.95 26.3875 20.675 24.1125 20.1625 24.7625L20.325 24.4375ZM44.375 36.3C44.85 35.35 39.725 31.4875 33.3625 27.725C26.8625 24.0375 22.1625 21.8625 21.3 22.5125L21.125 22.875C21.125 22.8875 21.125 22.85 21.175 22.8125C21.325 22.6875 21.5875 22.6875 21.7 22.6875C23.175 22.7125 27.3875 24.65 33.3 28.0375C35.9 29.5375 44.25 34.9125 44.2125 36.4125C44.2125 36.5375 44.225 36.5625 44.175 36.6375L44.3875 36.3125L44.375 36.3Z" fill="#FFFF00" stroke="black" stroke-width="0.075" stroke-linecap="round" stroke-linejoin="round"/>
<path d="M24.5801 31.4709C24.5821 32.5059 24.7893 33.5303 25.1898 34.4847C25.5903 35.439 26.1762 36.3045 26.9134 37.0309C27.6417 37.7704 28.5091 38.3585 29.4656 38.7612C30.4221 39.164 31.4489 39.3734 32.4868 39.3776C34.5872 39.3775 36.6016 38.5429 38.0868 37.0576C38.8214 36.3271 39.4046 35.4588 39.8027 34.5023C40.2008 33.5459 40.4061 32.5202 40.4068 31.4843V20.9242L24.5801 20.8976V31.4709Z" fill="white" stroke="black" stroke-width="0.0933336"/>
<path d="M24.8734 31.4843C24.8762 32.4771 25.0756 33.4595 25.4601 34.3749C25.8445 35.2903 26.4065 36.1205 27.1134 36.8176C28.533 38.2446 30.4606 39.0502 32.4734 39.0576C34.4827 39.0587 36.4104 38.2627 37.8334 36.8443C38.538 36.1461 39.0975 35.3154 39.4796 34.4001C39.8618 33.4847 40.0591 32.5028 40.0601 31.5109V21.2442H24.9001V31.4843M37.0334 24.3242V30.8443L37.0201 31.5243C37.0246 32.1199 36.9088 32.7104 36.6797 33.2602C36.4506 33.8101 36.1129 34.308 35.6868 34.7243C34.8389 35.5751 33.688 36.0547 32.4868 36.0576C31.2334 36.0576 30.1268 35.5243 29.3001 34.6976C28.4492 33.8497 27.9697 32.6988 27.9668 31.4976V24.2976L37.0334 24.3242Z" fill="#FF0000"/>
<path d="M24.8734 31.4843C24.8762 32.4771 25.0756 33.4595 25.4601 34.3749C25.8445 35.2903 26.4065 36.1205 27.1134 36.8176C28.533 38.2446 30.4606 39.0502 32.4734 39.0576C34.4827 39.0587 36.4104 38.2627 37.8334 36.8443C38.538 36.1461 39.0975 35.3154 39.4796 34.4001C39.8618 33.4847 40.0591 32.5028 40.0601 31.5109V21.2442H24.9001V31.4843M37.0334 24.3242V30.8443L37.0201 31.5243C37.0246 32.1199 36.9088 32.7104 36.6797 33.2602C36.4506 33.8101 36.1129 34.308 35.6868 34.7243C34.8389 35.5751 33.688 36.0547 32.4868 36.0576C31.2334 36.0576 30.1268 35.5243 29.3001 34.6976C28.4492 33.8497 27.9697 32.6988 27.9668 31.4976V24.2976L37.0334 24.3242Z" stroke="black" stroke-width="0.0666669"/>
<path d="M25.8601 23.9242C25.8734 23.1909 26.3934 23.0176 26.3934 23.0176C26.4067 23.0176 26.9667 23.2042 26.9667 23.9376H25.8601" fill="#FFFF00"/>
<path d="M25.4067 23.0309L25.3134 23.8709H25.8734C25.8734 23.1776 26.4067 23.0709 26.4067 23.0709C26.4201 23.0709 26.9401 23.2176 26.9534 23.8709H27.5134L27.4068 23.0176H25.4067V23.0309ZM25.2734 23.8842H27.5401C27.5801 23.8842 27.6201 23.9242 27.6201 23.9776C27.6201 24.0442 27.5801 24.0842 27.5401 24.0842H25.2734C25.2334 24.0842 25.1934 24.0442 25.1934 23.9776C25.1934 23.9242 25.2334 23.8842 25.2867 23.8842H25.2734Z" fill="#FFFF00" stroke="black" stroke-width="0.0666669"/>
<path d="M26.1001 23.8709C26.1001 23.4309 26.4067 23.3109 26.4067 23.3109C26.4067 23.3109 26.7134 23.4442 26.7134 23.8709H26.1001ZM25.3267 22.6709H27.5001C27.5401 22.6709 27.5801 22.7242 27.5801 22.7776C27.5801 22.8176 27.5401 22.8576 27.5001 22.8576H25.3267C25.2867 22.8576 25.2467 22.8176 25.2467 22.7642C25.2467 22.7242 25.2867 22.6842 25.3267 22.6842V22.6709ZM25.3801 22.8709H27.4334C27.4734 22.8709 27.5134 22.9109 27.5134 22.9642C27.5134 23.0176 27.4734 23.0576 27.4334 23.0576H25.3667C25.3134 23.0576 25.2867 23.0176 25.2867 22.9642C25.2867 22.9109 25.3134 22.8709 25.3667 22.8709H25.3801ZM26.0467 21.4576H26.2067V21.5642H26.3267V21.4576H26.5001V21.5776H26.6201V21.4442H26.7801V21.7109C26.7801 21.7642 26.7534 21.7909 26.7134 21.7909H26.1267C26.0867 21.7909 26.0467 21.7642 26.0467 21.7242V21.4576ZM26.6601 21.8176L26.7001 22.6709H26.1267L26.1667 21.8042H26.6601" fill="#FFFF00"/>
<path d="M26.6601 21.8176L26.7001 22.6709H26.1267L26.1667 21.8042H26.6601M26.1001 23.8709C26.1001 23.4309 26.4067 23.3109 26.4067 23.3109C26.4067 23.3109 26.7134 23.4442 26.7134 23.8709H26.1001ZM25.3267 22.6709H27.5001C27.5401 22.6709 27.5801 22.7242 27.5801 22.7776C27.5801 22.8176 27.5401 22.8576 27.5001 22.8576H25.3267C25.2867 22.8576 25.2467 22.8176 25.2467 22.7642C25.2467 22.7242 25.2867 22.6842 25.3267 22.6842V22.6709ZM25.3801 22.8709H27.4334C27.4734 22.8709 27.5134 22.9109 27.5134 22.9642C27.5134 23.0176 27.4734 23.0576 27.4334 23.0576H25.3667C25.3134 23.0576 25.2867 23.0176 25.2867 22.9642C25.2867 22.9109 25.3134 22.8709 25.3667 22.8709H25.3801ZM26.0467 21.4576H26.2067V21.5642H26.3267V21.4576H26.5001V21.5776H26.6201V21.4442H26.7801V21.7109C26.7801 21.7642 26.7534 21.7909 26.7134 21.7909H26.1267C26.0867 21.7909 26.0467 21.7642 26.0467 21.7242V21.4576Z" stroke="black" stroke-width="0.0666669"/>
<path d="M25.9667 22.2176V22.6709H25.4334V22.2176H25.9667Z" fill="#FFFF00" stroke="black" stroke-width="0.0666669"/>
<path d="M27.3801 22.2176V22.6709H26.8468V22.2176H27.3801Z" fill="#FFFF00" stroke="black" stroke-width="0.0666669"/>
<path d="M25.3401 21.8709H25.5001V22.0042H25.6201V21.8709H25.7801V22.0042H25.9001V21.8709H26.0601V22.1376C26.0601 22.1909 26.0334 22.2176 25.9934 22.2176H25.4201C25.3989 22.2176 25.3785 22.2091 25.3635 22.1941C25.3485 22.1791 25.3401 22.1588 25.3401 22.1376V21.8709Z" fill="#FFFF00" stroke="black" stroke-width="0.0666669"/>
<path d="M26.7534 21.8709H26.9134V22.0042H27.0334V21.8709H27.1934V22.0042H27.3134V21.8709H27.4734V22.1376C27.4734 22.1909 27.4468 22.2176 27.4068 22.2176H26.8334C26.8122 22.2176 26.7919 22.2091 26.7768 22.1941C26.7618 22.1791 26.7534 22.1588 26.7534 22.1376V21.8709Z" fill="#FFFF00" stroke="black" stroke-width="0.0666669"/>
<path d="M26.3534 22.0842C26.3534 22.0042 26.4734 22.0042 26.4734 22.0842V22.2976H26.3534V22.0842Z" fill="black"/>
<path d="M25.6467 22.3776C25.6467 22.2976 25.7534 22.2976 25.7534 22.3776V22.5376H25.6467V22.3776Z" fill="black"/>
<path d="M27.0601 22.3776C27.0601 22.2976 27.1668 22.2976 27.1668 22.3776V22.5376H27.0601V22.3776Z" fill="black"/>
<path d="M25.8601 30.0976C25.8734 29.3642 26.3934 29.1909 26.3934 29.1909C26.4067 29.1909 26.9667 29.3776 26.9667 30.1109H25.8601" fill="#FFFF00"/>
<path d="M25.4067 29.2042L25.3134 30.0442H25.8734C25.8734 29.3509 26.4067 29.2442 26.4067 29.2442C26.4201 29.2442 26.9401 29.3909 26.9534 30.0442H27.5134L27.4068 29.1909H25.4067V29.2042ZM25.2734 30.0576H27.5401C27.5801 30.0576 27.6201 30.0976 27.6201 30.1509C27.6201 30.2176 27.5801 30.2576 27.5401 30.2576H25.2734C25.2334 30.2576 25.1934 30.2176 25.1934 30.1509C25.1934 30.0976 25.2334 30.0576 25.2867 30.0576H25.2734Z" fill="#FFFF00" stroke="black" stroke-width="0.0666669"/>
<path d="M26.1001 30.0442C26.1001 29.6042 26.4067 29.4842 26.4067 29.4842C26.4067 29.4842 26.7134 29.6176 26.7134 30.0442H26.1001ZM25.3267 28.8442H27.5001C27.5401 28.8442 27.5801 28.8976 27.5801 28.9509C27.5801 28.9909 27.5401 29.0309 27.5001 29.0309H25.3267C25.2867 29.0309 25.2467 28.9909 25.2467 28.9376C25.2467 28.8976 25.2867 28.8576 25.3267 28.8576V28.8442ZM25.3801 29.0442H27.4334C27.4734 29.0442 27.5134 29.0842 27.5134 29.1376C27.5134 29.1909 27.4734 29.2309 27.4334 29.2309H25.3667C25.3134 29.2309 25.2867 29.1909 25.2867 29.1376C25.2867 29.0842 25.3134 29.0442 25.3667 29.0442H25.3801ZM26.0467 27.6309H26.2067V27.7376H26.3267V27.6309H26.5001V27.7509H26.6201V27.6176H26.7801V27.8842C26.7801 27.9376 26.7534 27.9642 26.7134 27.9642H26.1267C26.0867 27.9642 26.0467 27.9376 26.0467 27.8976V27.6309ZM26.6601 27.9909L26.7001 28.8442H26.1267L26.1667 27.9776H26.6601" fill="#FFFF00"/>
<path d="M26.6601 27.9909L26.7001 28.8442H26.1267L26.1667 27.9776H26.6601M26.1001 30.0442C26.1001 29.6042 26.4067 29.4842 26.4067 29.4842C26.4067 29.4842 26.7134 29.6176 26.7134 30.0442H26.1001ZM25.3267 28.8442H27.5001C27.5401 28.8442 27.5801 28.8976 27.5801 28.9509C27.5801 28.9909 27.5401 29.0309 27.5001 29.0309H25.3267C25.2867 29.0309 25.2467 28.9909 25.2467 28.9376C25.2467 28.8976 25.2867 28.8576 25.3267 28.8576V28.8442ZM25.3801 29.0442H27.4334C27.4734 29.0442 27.5134 29.0842 27.5134 29.1376C27.5134 29.1909 27.4734 29.2309 27.4334 29.2309H25.3667C25.3134 29.2309 25.2867 29.1909 25.2867 29.1376C25.2867 29.0842 25.3134 29.0442 25.3667 29.0442H25.3801ZM26.0467 27.6309H26.2067V27.7376H26.3267V27.6309H26.5001V27.7509H26.6201V27.6176H26.7801V27.8842C26.7801 27.9376 26.7534 27.9642 26.7134 27.9642H26.1267C26.0867 27.9642 26.0467 27.9376 26.0467 27.8976V27.6309Z" stroke="black" stroke-width="0.0666669"/>
<path d="M25.9667 28.3909V28.8442H25.4334V28.3909H25.9667Z" fill="#FFFF00" stroke="black" stroke-width="0.0666669"/>
<path d="M27.3801 28.3909V28.8442H26.8468V28.3909H27.3801Z" fill="#FFFF00" stroke="black" stroke-width="0.0666669"/>
<path d="M25.3401 28.0442H25.5001V28.1776H25.6201V28.0442H25.7801V28.1776H25.9001V28.0442H26.0601V28.3109C26.0601 28.3642 26.0334 28.3909 25.9934 28.3909H25.4201C25.3989 28.3909 25.3785 28.3825 25.3635 28.3675C25.3485 28.3525 25.3401 28.3321 25.3401 28.3109V28.0442Z" fill="#FFFF00" stroke="black" stroke-width="0.0666669"/>
<path d="M26.7534 28.0442H26.9134V28.1776H27.0334V28.0442H27.1934V28.1776H27.3134V28.0442H27.4734V28.3109C27.4734 28.3642 27.4468 28.3909 27.4068 28.3909H26.8334C26.8122 28.3909 26.7919 28.3825 26.7768 28.3675C26.7618 28.3525 26.7534 28.3321 26.7534 28.3109V28.0442Z" fill="#FFFF00" stroke="black" stroke-width="0.0666669"/>
<path d="M26.3534 28.2576C26.3534 28.1776 26.4734 28.1776 26.4734 28.2576V28.4709H26.3534V28.2576Z" fill="black"/>
<path d="M25.6467 28.5509C25.6467 28.4709 25.7534 28.4709 25.7534 28.5509V28.7109H25.6467V28.5509Z" fill="black"/>
<path d="M27.0601 28.5509C27.0601 28.4709 27.1668 28.4709 27.1668 28.5509V28.7109H27.0601V28.5509Z" fill="black"/>
<path d="M28.2663 36.5316C27.7554 36.0054 27.9988 35.5143 27.9988 35.5143C28.0082 35.5048 28.5352 35.239 29.0556 35.7557L28.2758 36.541" fill="#FFFF00"/>
<path d="M27.313 36.2238L27.8433 36.8819L28.2379 36.4845C27.7459 35.996 28.046 35.5424 28.046 35.5424C28.0554 35.5329 28.5259 35.2673 28.9989 35.7182L29.3935 35.3208L28.7128 34.7952L27.3036 36.2144L27.313 36.2238ZM27.8246 36.9197L29.4217 35.3113C29.4499 35.2829 29.5065 35.2827 29.5443 35.3203C29.5916 35.3673 29.5918 35.4238 29.5637 35.4522L27.9665 37.0606C27.9383 37.089 27.8817 37.0892 27.8344 37.0422C27.7966 37.0046 27.7964 36.948 27.834 36.9102L27.8246 36.9197Z" fill="#FFFF00" stroke="black" stroke-width="0.0666669"/>
<path d="M28.3976 36.3237C28.0854 36.0136 28.2163 35.7115 28.2163 35.7115C28.2163 35.7115 28.527 35.5878 28.8298 35.8885L28.3976 36.3237ZM27.0012 36.0269L28.5326 34.4847C28.5608 34.4563 28.6268 34.4655 28.6647 34.5031C28.693 34.5313 28.6932 34.5879 28.6651 34.6163L27.1336 36.1584C27.1055 36.1868 27.0489 36.187 27.011 36.1494C26.9827 36.1212 26.9825 36.0646 27.0107 36.0363L27.0012 36.0269ZM27.1807 36.1299L28.6275 34.673C28.6557 34.6446 28.7123 34.6444 28.7501 34.682C28.788 34.7195 28.7882 34.7761 28.76 34.8045L27.3037 36.2709C27.2662 36.3088 27.219 36.2995 27.1811 36.2619C27.1433 36.2244 27.1337 36.1772 27.1713 36.1394L27.1807 36.1299ZM26.6476 34.661L26.7603 34.5475L26.836 34.6226L26.9206 34.5375L26.8449 34.4623L26.967 34.3393L27.0522 34.4239L27.1367 34.3387L27.0421 34.2448L27.1549 34.1313L27.3441 34.3192C27.3819 34.3567 27.382 34.3945 27.3539 34.4228L26.9405 34.8391C26.9123 34.8675 26.8652 34.8771 26.8368 34.8489L26.6476 34.661ZM27.3352 34.4795L27.9689 35.0524L27.5649 35.4592L26.9781 34.8201L27.3257 34.4701" fill="#FFFF00"/>
<path d="M27.3352 34.4795L27.9689 35.0524L27.5649 35.4592L26.9781 34.8201L27.3257 34.4701M28.3976 36.3237C28.0854 36.0136 28.2163 35.7115 28.2163 35.7115C28.2163 35.7115 28.527 35.5878 28.8298 35.8885L28.3976 36.3237ZM27.0012 36.0269L28.5326 34.4847C28.5608 34.4563 28.6268 34.4655 28.6647 34.5031C28.693 34.5313 28.6932 34.5879 28.6651 34.6163L27.1336 36.1584C27.1055 36.1868 27.0489 36.187 27.011 36.1494C26.9827 36.1212 26.9825 36.0646 27.0107 36.0363L27.0012 36.0269ZM27.1807 36.1299L28.6275 34.673C28.6557 34.6446 28.7123 34.6444 28.7501 34.682C28.788 34.7195 28.7882 34.7761 28.76 34.8045L27.3037 36.2709C27.2662 36.3088 27.219 36.2995 27.1811 36.2619C27.1433 36.2244 27.1337 36.1772 27.1713 36.1394L27.1807 36.1299ZM26.6476 34.661L26.7603 34.5475L26.836 34.6226L26.9206 34.5375L26.8449 34.4623L26.967 34.3393L27.0522 34.4239L27.1367 34.3387L27.0421 34.2448L27.1549 34.1313L27.3441 34.3192C27.3819 34.3567 27.382 34.3945 27.3539 34.4228L26.9405 34.8391C26.9123 34.8675 26.8652 34.8771 26.8368 34.8489L26.6476 34.661Z" stroke="black" stroke-width="0.0666669"/>
<path d="M27.1305 35.2533L27.4522 35.5727L27.0764 35.9512L26.7547 35.6317L27.1305 35.2533Z" fill="#FFFF00" stroke="black" stroke-width="0.0666669"/>
<path d="M28.1264 34.2504L28.448 34.5699L28.0722 34.9483L27.7506 34.6289L28.1264 34.2504Z" fill="#FFFF00" stroke="black" stroke-width="0.0666669"/>
<path d="M26.4429 35.4537L26.5557 35.3402L26.6503 35.4341L26.7348 35.349L26.6402 35.255L26.753 35.1415L26.8476 35.2354L26.9321 35.1503L26.8375 35.0563L26.9503 34.9428L27.1395 35.1307C27.1773 35.1683 27.1775 35.206 27.1493 35.2344L26.7453 35.6412C26.7303 35.6563 26.71 35.6648 26.6888 35.6648C26.6676 35.6649 26.6472 35.6565 26.6321 35.6416L26.4429 35.4537Z" fill="#FFFF00" stroke="black" stroke-width="0.0666669"/>
<path d="M27.4388 34.4508L27.5516 34.3373L27.6462 34.4312L27.7307 34.3461L27.6361 34.2521L27.7489 34.1386L27.8435 34.2326L27.928 34.1474L27.8334 34.0535L27.9462 33.9399L28.1354 34.1278C28.1732 34.1654 28.1734 34.2031 28.1452 34.2315L27.7412 34.6383C27.7262 34.6534 27.7059 34.6619 27.6847 34.662C27.6635 34.662 27.6431 34.6537 27.628 34.6387L27.4388 34.4508Z" fill="#FFFF00" stroke="black" stroke-width="0.0666669"/>
<path d="M27.3083 34.885C27.2516 34.8286 27.3361 34.7435 27.3929 34.7998L27.5443 34.9502L27.4597 35.0353L27.3083 34.885Z" fill="black"/>
<path d="M27.0185 35.5931C26.9618 35.5367 27.0369 35.461 27.0937 35.5174L27.2072 35.6302L27.1321 35.7058L27.0185 35.5931Z" fill="black"/>
<path d="M28.0144 34.5902C27.9577 34.5339 28.0328 34.4582 28.0896 34.5146L28.2031 34.6273L28.128 34.703L28.0144 34.5902Z" fill="black"/>
<path d="M31.9534 23.9242C31.9668 23.1909 32.4868 23.0176 32.4868 23.0176C32.5001 23.0176 33.0601 23.2042 33.0601 23.9376H31.9534" fill="#FFFF00"/>
<path d="M31.5001 23.0309L31.4068 23.8709H31.9668C31.9668 23.1776 32.5001 23.0709 32.5001 23.0709C32.5134 23.0709 33.0334 23.2176 33.0468 23.8709H33.6068L33.5001 23.0176H31.5001V23.0309ZM31.3668 23.8842H33.6334C33.6734 23.8842 33.7134 23.9242 33.7134 23.9776C33.7134 24.0442 33.6734 24.0842 33.6334 24.0842H31.3668C31.3268 24.0842 31.2868 24.0442 31.2868 23.9776C31.2868 23.9242 31.3268 23.8842 31.3801 23.8842H31.3668Z" fill="#FFFF00" stroke="black" stroke-width="0.0666669"/>
<path d="M32.1934 23.8709C32.1934 23.4309 32.5001 23.3109 32.5001 23.3109C32.5001 23.3109 32.8068 23.4442 32.8068 23.8709H32.1934ZM31.4201 22.6709H33.5934C33.6334 22.6709 33.6734 22.7242 33.6734 22.7776C33.6734 22.8176 33.6334 22.8576 33.5934 22.8576H31.4201C31.3801 22.8576 31.3401 22.8176 31.3401 22.7642C31.3401 22.7242 31.3801 22.6842 31.4201 22.6842V22.6709ZM31.4734 22.8709H33.5268C33.5668 22.8709 33.6068 22.9109 33.6068 22.9642C33.6068 23.0176 33.5668 23.0576 33.5268 23.0576H31.4601C31.4068 23.0576 31.3801 23.0176 31.3801 22.9642C31.3801 22.9109 31.4068 22.8709 31.4601 22.8709H31.4734ZM32.1401 21.4576H32.3001V21.5642H32.4201V21.4576H32.5934V21.5776H32.7134V21.4442H32.8734V21.7109C32.8734 21.7642 32.8468 21.7909 32.8068 21.7909H32.2201C32.1801 21.7909 32.1401 21.7642 32.1401 21.7242V21.4576ZM32.7534 21.8176L32.7934 22.6709H32.2201L32.2601 21.8042H32.7534" fill="#FFFF00"/>
<path d="M32.7534 21.8176L32.7934 22.6709H32.2201L32.2601 21.8042H32.7534M32.1934 23.8709C32.1934 23.4309 32.5001 23.3109 32.5001 23.3109C32.5001 23.3109 32.8068 23.4442 32.8068 23.8709H32.1934ZM31.4201 22.6709H33.5934C33.6334 22.6709 33.6734 22.7242 33.6734 22.7776C33.6734 22.8176 33.6334 22.8576 33.5934 22.8576H31.4201C31.3801 22.8576 31.3401 22.8176 31.3401 22.7642C31.3401 22.7242 31.3801 22.6842 31.4201 22.6842V22.6709ZM31.4734 22.8709H33.5268C33.5668 22.8709 33.6068 22.9109 33.6068 22.9642C33.6068 23.0176 33.5668 23.0576 33.5268 23.0576H31.4601C31.4068 23.0576 31.3801 23.0176 31.3801 22.9642C31.3801 22.9109 31.4068 22.8709 31.4601 22.8709H31.4734ZM32.1401 21.4576H32.3001V21.5642H32.4201V21.4576H32.5934V21.5776H32.7134V21.4442H32.8734V21.7109C32.8734 21.7642 32.8468 21.7909 32.8068 21.7909H32.2201C32.1801 21.7909 32.1401 21.7642 32.1401 21.7242V21.4576Z" stroke="black" stroke-width="0.0666669"/>
<path d="M32.0601 22.2176V22.6709H31.5268V22.2176H32.0601Z" fill="#FFFF00" stroke="black" stroke-width="0.0666669"/>
<path d="M33.4734 22.2176V22.6709H32.9401V22.2176H33.4734Z" fill="#FFFF00" stroke="black" stroke-width="0.0666669"/>
<path d="M31.4334 21.8709H31.5934V22.0042H31.7134V21.8709H31.8734V22.0042H31.9934V21.8709H32.1534V22.1376C32.1534 22.1909 32.1268 22.2176 32.0868 22.2176H31.5134C31.4922 22.2176 31.4719 22.2091 31.4569 22.1941C31.4419 22.1791 31.4334 22.1588 31.4334 22.1376V21.8709Z" fill="#FFFF00" stroke="black" stroke-width="0.0666669"/>
<path d="M32.8468 21.8709H33.0068V22.0042H33.1268V21.8709H33.2868V22.0042H33.4068V21.8709H33.5668V22.1376C33.5668 22.1909 33.5401 22.2176 33.5001 22.2176H32.9268C32.9056 22.2176 32.8852 22.2091 32.8702 22.1941C32.8552 22.1791 32.8468 22.1588 32.8468 22.1376V21.8709Z" fill="#FFFF00" stroke="black" stroke-width="0.0666669"/>
<path d="M32.4468 22.0842C32.4468 22.0042 32.5668 22.0042 32.5668 22.0842V22.2976H32.4468V22.0842Z" fill="black"/>
<path d="M31.7401 22.3776C31.7401 22.2976 31.8468 22.2976 31.8468 22.3776V22.5376H31.7401V22.3776Z" fill="black"/>
<path d="M33.1534 22.3776C33.1534 22.2976 33.2601 22.2976 33.2601 22.3776V22.5376H33.1534V22.3776Z" fill="black"/>
<path d="M39.1135 23.9242C39.1001 23.1909 38.5801 23.0176 38.5801 23.0176C38.5668 23.0176 38.0068 23.2042 38.0068 23.9376H39.1135" fill="#FFFF00"/>
<path d="M39.5668 23.0309L39.6601 23.8709H39.1001C39.1001 23.1776 38.5668 23.0709 38.5668 23.0709C38.5534 23.0709 38.0334 23.2176 38.0201 23.8709H37.4601L37.5668 23.0176H39.5668V23.0309ZM39.7001 23.8842H37.4334C37.3934 23.8842 37.3534 23.9242 37.3534 23.9776C37.3534 24.0442 37.3934 24.0842 37.4334 24.0842H39.7001C39.7401 24.0842 39.7801 24.0442 39.7801 23.9776C39.7801 23.9242 39.7401 23.8842 39.6868 23.8842H39.7001Z" fill="#FFFF00" stroke="black" stroke-width="0.0666669"/>
<path d="M38.8735 23.8709C38.8735 23.4309 38.5668 23.3109 38.5668 23.3109C38.5668 23.3109 38.2601 23.4442 38.2601 23.8709H38.8735ZM39.6468 22.6709H37.4735C37.4335 22.6709 37.3935 22.7242 37.3935 22.7776C37.3935 22.8176 37.4335 22.8576 37.4735 22.8576H39.6468C39.6868 22.8576 39.7268 22.8176 39.7268 22.7642C39.7268 22.7242 39.6868 22.6842 39.6468 22.6842V22.6709ZM39.5935 22.8709H37.5401C37.5001 22.8709 37.4601 22.9109 37.4601 22.9642C37.4601 23.0176 37.5001 23.0576 37.5401 23.0576H39.6068C39.6601 23.0576 39.6868 23.0176 39.6868 22.9642C39.6868 22.9109 39.6601 22.8709 39.6068 22.8709H39.5935ZM38.9268 21.4576H38.7668V21.5642H38.6468V21.4576H38.4735V21.5776H38.3535V21.4442H38.1935V21.7109C38.1935 21.7642 38.2201 21.7909 38.2601 21.7909H38.8468C38.8868 21.7909 38.9268 21.7642 38.9268 21.7242V21.4576ZM38.3135 21.8176L38.2735 22.6709H38.8468L38.8068 21.8042H38.3135" fill="#FFFF00"/>
<path d="M38.3135 21.8176L38.2735 22.6709H38.8468L38.8068 21.8042H38.3135M38.8735 23.8709C38.8735 23.4309 38.5668 23.3109 38.5668 23.3109C38.5668 23.3109 38.2601 23.4442 38.2601 23.8709H38.8735ZM39.6468 22.6709H37.4735C37.4335 22.6709 37.3935 22.7242 37.3935 22.7776C37.3935 22.8176 37.4335 22.8576 37.4735 22.8576H39.6468C39.6868 22.8576 39.7268 22.8176 39.7268 22.7642C39.7268 22.7242 39.6868 22.6842 39.6468 22.6842V22.6709ZM39.5935 22.8709H37.5401C37.5001 22.8709 37.4601 22.9109 37.4601 22.9642C37.4601 23.0176 37.5001 23.0576 37.5401 23.0576H39.6068C39.6601 23.0576 39.6868 23.0176 39.6868 22.9642C39.6868 22.9109 39.6601 22.8709 39.6068 22.8709H39.5935ZM38.9268 21.4576H38.7668V21.5642H38.6468V21.4576H38.4735V21.5776H38.3535V21.4442H38.1935V21.7109C38.1935 21.7642 38.2201 21.7909 38.2601 21.7909H38.8468C38.8868 21.7909 38.9268 21.7642 38.9268 21.7242V21.4576Z" stroke="black" stroke-width="0.0666669"/>
<path d="M39.0068 22.2176V22.6709H39.5401V22.2176H39.0068Z" fill="#FFFF00" stroke="black" stroke-width="0.0666669"/>
<path d="M37.5935 22.2176V22.6709H38.1268V22.2176H37.5935Z" fill="#FFFF00" stroke="black" stroke-width="0.0666669"/>
<path d="M39.6335 21.8709H39.4735V22.0042H39.3535V21.8709H39.1935V22.0042H39.0735V21.8709H38.9135V22.1376C38.9135 22.1909 38.9401 22.2176 38.9801 22.2176H39.5535C39.5747 22.2176 39.595 22.2091 39.61 22.1941C39.625 22.1791 39.6335 22.1588 39.6335 22.1376V21.8709Z" fill="#FFFF00" stroke="black" stroke-width="0.0666669"/>
<path d="M38.2201 21.8709H38.0601V22.0042H37.9401V21.8709H37.7801V22.0042H37.6601V21.8709H37.5001V22.1376C37.5001 22.1909 37.5268 22.2176 37.5668 22.2176H38.1401C38.1613 22.2176 38.1817 22.2091 38.1967 22.1941C38.2117 22.1791 38.2201 22.1588 38.2201 22.1376V21.8709Z" fill="#FFFF00" stroke="black" stroke-width="0.0666669"/>
<path d="M38.6201 22.0842C38.6201 22.0042 38.5001 22.0042 38.5001 22.0842V22.2976H38.6201V22.0842Z" fill="black"/>
<path d="M39.3268 22.3776C39.3268 22.2976 39.2201 22.2976 39.2201 22.3776V22.5376H39.3268V22.3776Z" fill="black"/>
<path d="M37.9134 22.3776C37.9134 22.2976 37.8068 22.2976 37.8068 22.3776V22.5376H37.9134V22.3776Z" fill="black"/>
<path d="M39.1135 30.0976C39.1001 29.3642 38.5801 29.1909 38.5801 29.1909C38.5668 29.1909 38.0068 29.3776 38.0068 30.1109H39.1135" fill="#FFFF00"/>
<path d="M39.5668 29.2042L39.6601 30.0442H39.1001C39.1001 29.3509 38.5668 29.2442 38.5668 29.2442C38.5534 29.2442 38.0334 29.3909 38.0201 30.0442H37.4601L37.5668 29.1909H39.5668V29.2042ZM39.7001 30.0576H37.4334C37.3934 30.0576 37.3534 30.0976 37.3534 30.1509C37.3534 30.2176 37.3934 30.2576 37.4334 30.2576H39.7001C39.7401 30.2576 39.7801 30.2176 39.7801 30.1509C39.7801 30.0976 39.7401 30.0576 39.6868 30.0576H39.7001Z" fill="#FFFF00" stroke="black" stroke-width="0.0666669"/>
<path d="M38.8735 30.0442C38.8735 29.6042 38.5668 29.4842 38.5668 29.4842C38.5668 29.4842 38.2601 29.6176 38.2601 30.0442H38.8735ZM39.6468 28.8442H37.4735C37.4335 28.8442 37.3935 28.8976 37.3935 28.9509C37.3935 28.9909 37.4335 29.0309 37.4735 29.0309H39.6468C39.6868 29.0309 39.7268 28.9909 39.7268 28.9376C39.7268 28.8976 39.6868 28.8576 39.6468 28.8576V28.8442ZM39.5935 29.0442H37.5401C37.5001 29.0442 37.4601 29.0842 37.4601 29.1376C37.4601 29.1909 37.5001 29.2309 37.5401 29.2309H39.6068C39.6601 29.2309 39.6868 29.1909 39.6868 29.1376C39.6868 29.0842 39.6601 29.0442 39.6068 29.0442H39.5935ZM38.9268 27.6309H38.7668V27.7376H38.6468V27.6309H38.4735V27.7509H38.3535V27.6176H38.1935V27.8842C38.1935 27.9376 38.2201 27.9642 38.2601 27.9642H38.8468C38.8868 27.9642 38.9268 27.9376 38.9268 27.8976V27.6309ZM38.3135 27.9909L38.2735 28.8442H38.8468L38.8068 27.9776H38.3135" fill="#FFFF00"/>
<path d="M38.3135 27.9909L38.2735 28.8442H38.8468L38.8068 27.9776H38.3135M38.8735 30.0442C38.8735 29.6042 38.5668 29.4842 38.5668 29.4842C38.5668 29.4842 38.2601 29.6176 38.2601 30.0442H38.8735ZM39.6468 28.8442H37.4735C37.4335 28.8442 37.3935 28.8976 37.3935 28.9509C37.3935 28.9909 37.4335 29.0309 37.4735 29.0309H39.6468C39.6868 29.0309 39.7268 28.9909 39.7268 28.9376C39.7268 28.8976 39.6868 28.8576 39.6468 28.8576V28.8442ZM39.5935 29.0442H37.5401C37.5001 29.0442 37.4601 29.0842 37.4601 29.1376C37.4601 29.1909 37.5001 29.2309 37.5401 29.2309H39.6068C39.6601 29.2309 39.6868 29.1909 39.6868 29.1376C39.6868 29.0842 39.6601 29.0442 39.6068 29.0442H39.5935ZM38.9268 27.6309H38.7668V27.7376H38.6468V27.6309H38.4735V27.7509H38.3535V27.6176H38.1935V27.8842C38.1935 27.9376 38.2201 27.9642 38.2601 27.9642H38.8468C38.8868 27.9642 38.9268 27.9376 38.9268 27.8976V27.6309Z" stroke="black" stroke-width="0.0666669"/>
<path d="M39.0068 28.3909V28.8442H39.5401V28.3909H39.0068Z" fill="#FFFF00" stroke="black" stroke-width="0.0666669"/>
<path d="M37.5935 28.3909V28.8442H38.1268V28.3909H37.5935Z" fill="#FFFF00" stroke="black" stroke-width="0.0666669"/>
<path d="M39.6335 28.0442H39.4735V28.1776H39.3535V28.0442H39.1935V28.1776H39.0735V28.0442H38.9135V28.3109C38.9135 28.3642 38.9401 28.3909 38.9801 28.3909H39.5535C39.5747 28.3909 39.595 28.3825 39.61 28.3675C39.625 28.3525 39.6335 28.3321 39.6335 28.3109V28.0442Z" fill="#FFFF00" stroke="black" stroke-width="0.0666669"/>
<path d="M38.2201 28.0442H38.0601V28.1776H37.9401V28.0442H37.7801V28.1776H37.6601V28.0442H37.5001V28.3109C37.5001 28.3642 37.5268 28.3909 37.5668 28.3909H38.1401C38.1613 28.3909 38.1817 28.3825 38.1967 28.3675C38.2117 28.3525 38.2201 28.3321 38.2201 28.3109V28.0442Z" fill="#FFFF00" stroke="black" stroke-width="0.0666669"/>
<path d="M38.6201 28.2576C38.6201 28.1776 38.5001 28.1776 38.5001 28.2576V28.4709H38.6201V28.2576Z" fill="black"/>
<path d="M39.3268 28.5509C39.3268 28.4709 39.2201 28.4709 39.2201 28.5509V28.7109H39.3268V28.5509Z" fill="black"/>
<path d="M37.9134 28.5509C37.9134 28.4709 37.8068 28.4709 37.8068 28.5509V28.7109H37.9134V28.5509Z" fill="black"/>
<path d="M36.7072 36.5316C37.2182 36.0054 36.9747 35.5143 36.9747 35.5143C36.9654 35.5048 36.4383 35.239 35.9179 35.7557L36.6977 36.541" fill="#FFFF00"/>
<path d="M37.6605 36.2238L37.1302 36.8819L36.7357 36.4845C37.2276 35.996 36.9275 35.5424 36.9275 35.5424C36.9181 35.5329 36.4476 35.2673 35.9746 35.7182L35.58 35.3208L36.2607 34.7952L37.67 36.2144L37.6605 36.2238ZM37.149 36.9197L35.5518 35.3113C35.5236 35.2829 35.467 35.2827 35.4292 35.3203C35.3819 35.3673 35.3817 35.4238 35.4099 35.4522L37.0071 37.0606C37.0352 37.089 37.0918 37.0892 37.1391 37.0422C37.177 37.0046 37.1772 36.948 37.1396 36.9102L37.149 36.9197Z" fill="#FFFF00" stroke="black" stroke-width="0.0666669"/>
<path d="M36.5759 36.3237C36.8881 36.0136 36.7572 35.7115 36.7572 35.7115C36.7572 35.7115 36.4465 35.5878 36.1438 35.8885L36.5759 36.3237ZM37.9723 36.0269L36.4409 34.4847C36.4127 34.4563 36.3467 34.4655 36.3089 34.5031C36.2805 34.5313 36.2803 34.5879 36.3085 34.6163L37.8399 36.1584C37.8681 36.1868 37.9246 36.187 37.9625 36.1494C37.9909 36.1212 37.9911 36.0646 37.9629 36.0363L37.9723 36.0269ZM37.7928 36.1299L36.346 34.673C36.3178 34.6446 36.2612 34.6444 36.2234 34.682C36.1856 34.7195 36.1854 34.7761 36.2135 34.8045L37.6698 36.2709C37.7074 36.3088 37.7545 36.2995 37.7924 36.2619C37.8302 36.2244 37.8398 36.1772 37.8022 36.1394L37.7928 36.1299ZM38.326 34.661L38.2132 34.5475L38.1375 34.6226L38.053 34.5375L38.1287 34.4623L38.0065 34.3393L37.9214 34.4239L37.8368 34.3387L37.9314 34.2448L37.8187 34.1313L37.6295 34.3192C37.5916 34.3567 37.5915 34.3945 37.6197 34.4228L38.0331 34.8391C38.0612 34.8675 38.1083 34.8771 38.1367 34.8489L38.326 34.661ZM37.6383 34.4795L37.0046 35.0524L37.4086 35.4592L37.9954 34.8201L37.6478 34.4701" fill="#FFFF00"/>
<path d="M37.6383 34.4795L37.0046 35.0524L37.4086 35.4592L37.9954 34.8201L37.6478 34.4701M36.5759 36.3237C36.8881 36.0136 36.7572 35.7115 36.7572 35.7115C36.7572 35.7115 36.4465 35.5878 36.1438 35.8885L36.5759 36.3237ZM37.9723 36.0269L36.4409 34.4847C36.4127 34.4563 36.3467 34.4655 36.3089 34.5031C36.2805 34.5313 36.2803 34.5879 36.3085 34.6163L37.8399 36.1584C37.8681 36.1868 37.9246 36.187 37.9625 36.1494C37.9909 36.1212 37.9911 36.0646 37.9629 36.0363L37.9723 36.0269ZM37.7928 36.1299L36.346 34.673C36.3178 34.6446 36.2612 34.6444 36.2234 34.682C36.1856 34.7195 36.1854 34.7761 36.2135 34.8045L37.6698 36.2709C37.7074 36.3088 37.7545 36.2995 37.7924 36.2619C37.8302 36.2244 37.8398 36.1772 37.8022 36.1394L37.7928 36.1299ZM38.326 34.661L38.2132 34.5475L38.1375 34.6226L38.053 34.5375L38.1287 34.4623L38.0065 34.3393L37.9214 34.4239L37.8368 34.3387L37.9314 34.2448L37.8187 34.1313L37.6295 34.3192C37.5916 34.3567 37.5915 34.3945 37.6197 34.4228L38.0331 34.8391C38.0612 34.8675 38.1083 34.8771 38.1367 34.8489L38.326 34.661Z" stroke="black" stroke-width="0.0666669"/>
<path d="M37.843 35.2533L37.5214 35.5727L37.8972 35.9512L38.2189 35.6317L37.843 35.2533Z" fill="#FFFF00" stroke="black" stroke-width="0.0666669"/>
<path d="M36.8472 34.2504L36.5255 34.5699L36.9013 34.9483L37.223 34.6289L36.8472 34.2504Z" fill="#FFFF00" stroke="black" stroke-width="0.0666669"/>
<path d="M38.5306 35.4537L38.4179 35.3402L38.3233 35.4341L38.2387 35.349L38.3333 35.255L38.2206 35.1415L38.126 35.2354L38.0414 35.1503L38.136 35.0563L38.0233 34.9428L37.834 35.1307C37.7962 35.1683 37.7961 35.206 37.8243 35.2344L38.2282 35.6412C38.2432 35.6563 38.2635 35.6648 38.2847 35.6648C38.3059 35.6649 38.3263 35.6565 38.3414 35.6416L38.5306 35.4537Z" fill="#FFFF00" stroke="black" stroke-width="0.0666669"/>
<path d="M37.5347 34.4508L37.422 34.3373L37.3274 34.4312L37.2428 34.3461L37.3374 34.2521L37.2247 34.1386L37.1301 34.2326L37.0455 34.1474L37.1401 34.0535L37.0274 33.9399L36.8382 34.1278C36.8003 34.1654 36.8002 34.2031 36.8284 34.2315L37.2324 34.6383C37.2473 34.6534 37.2676 34.6619 37.2889 34.662C37.3101 34.662 37.3304 34.6537 37.3455 34.6387L37.5347 34.4508Z" fill="#FFFF00" stroke="black" stroke-width="0.0666669"/>
<path d="M37.6652 34.885C37.722 34.8286 37.6374 34.7435 37.5806 34.7998L37.4293 34.9502L37.5138 35.0353L37.6652 34.885Z" fill="black"/>
<path d="M37.955 35.5931C38.0118 35.5367 37.9366 35.461 37.8798 35.5174L37.7663 35.6302L37.8415 35.7058L37.955 35.5931Z" fill="black"/>
<path d="M36.9591 34.5902C37.0159 34.5339 36.9407 34.4582 36.884 34.5146L36.7704 34.6273L36.8456 34.703L36.9591 34.5902Z" fill="black"/>
<path d="M31.5134 30.3242C31.511 30.6057 31.6159 30.8774 31.8068 31.0843C31.8958 31.1838 32.0047 31.2637 32.1263 31.3188C32.248 31.3739 32.3799 31.403 32.5134 31.4043C32.7934 31.4043 33.0468 31.2709 33.2201 31.0843C33.411 30.8774 33.5158 30.6057 33.5134 30.3242V28.8842H31.5134V30.3242Z" fill="#003399"/>
<path d="M31.9801 29.6309C32.0906 29.6309 32.1801 29.5414 32.1801 29.4309C32.1801 29.3205 32.0906 29.2309 31.9801 29.2309C31.8696 29.2309 31.7801 29.3205 31.7801 29.4309C31.7801 29.5414 31.8696 29.6309 31.9801 29.6309Z" fill="white"/>
<path d="M33.0868 29.6309C33.1972 29.6309 33.2868 29.5414 33.2868 29.4309C33.2868 29.3205 33.1972 29.2309 33.0868 29.2309C32.9763 29.2309 32.8868 29.3205 32.8868 29.4309C32.8868 29.5414 32.9763 29.6309 33.0868 29.6309Z" fill="white"/>
<path d="M32.5268 30.1642C32.6372 30.1642 32.7268 30.0747 32.7268 29.9642C32.7268 29.8538 32.6372 29.7642 32.5268 29.7642C32.4163 29.7642 32.3268 29.8538 32.3268 29.9642C32.3268 30.0747 32.4163 30.1642 32.5268 30.1642Z" fill="white"/>
<path d="M31.9801 30.7243C32.0906 30.7243 32.1801 30.6347 32.1801 30.5242C32.1801 30.4138 32.0906 30.3242 31.9801 30.3242C31.8696 30.3242 31.7801 30.4138 31.7801 30.5242C31.7801 30.6347 31.8696 30.7243 31.9801 30.7243Z" fill="white"/>
<path d="M33.0868 30.7243C33.1972 30.7243 33.2868 30.6347 33.2868 30.5242C33.2868 30.4138 33.1972 30.3242 33.0868 30.3242C32.9763 30.3242 32.8868 30.4138 32.8868 30.5242C32.8868 30.6347 32.9763 30.7243 33.0868 30.7243Z" fill="white"/>
<path d="M31.5134 26.8576C31.511 27.139 31.6159 27.4108 31.8068 27.6176C31.8958 27.7171 32.0047 27.797 32.1263 27.8521C32.248 27.9072 32.3799 27.9363 32.5134 27.9376C32.7934 27.9376 33.0468 27.8042 33.2201 27.6176C33.411 27.4108 33.5158 27.139 33.5134 26.8576V25.4176H31.5134V26.8576Z" fill="#003399"/>
<path d="M31.9801 26.1642C32.0906 26.1642 32.1801 26.0747 32.1801 25.9642C32.1801 25.8538 32.0906 25.7642 31.9801 25.7642C31.8696 25.7642 31.7801 25.8538 31.7801 25.9642C31.7801 26.0747 31.8696 26.1642 31.9801 26.1642Z" fill="white"/>
<path d="M33.0868 26.1642C33.1972 26.1642 33.2868 26.0747 33.2868 25.9642C33.2868 25.8538 33.1972 25.7642 33.0868 25.7642C32.9763 25.7642 32.8868 25.8538 32.8868 25.9642C32.8868 26.0747 32.9763 26.1642 33.0868 26.1642Z" fill="white"/>
<path d="M32.5268 26.6976C32.6372 26.6976 32.7268 26.608 32.7268 26.4976C32.7268 26.3871 32.6372 26.2976 32.5268 26.2976C32.4163 26.2976 32.3268 26.3871 32.3268 26.4976C32.3268 26.608 32.4163 26.6976 32.5268 26.6976Z" fill="white"/>
<path d="M31.9801 27.2576C32.0906 27.2576 32.1801 27.168 32.1801 27.0576C32.1801 26.9471 32.0906 26.8576 31.9801 26.8576C31.8696 26.8576 31.7801 26.9471 31.7801 27.0576C31.7801 27.168 31.8696 27.2576 31.9801 27.2576Z" fill="white"/>
<path d="M33.0868 27.2576C33.1972 27.2576 33.2868 27.168 33.2868 27.0576C33.2868 26.9471 33.1972 26.8576 33.0868 26.8576C32.9763 26.8576 32.8868 26.9471 32.8868 27.0576C32.8868 27.168 32.9763 27.2576 33.0868 27.2576Z" fill="white"/>
<path d="M28.7401 30.3242C28.7377 30.6057 28.8426 30.8774 29.0334 31.0843C29.1225 31.1838 29.2313 31.2637 29.353 31.3188C29.4747 31.3739 29.6065 31.403 29.7401 31.4043C30.0201 31.4043 30.2734 31.2709 30.4468 31.0843C30.6376 30.8774 30.7425 30.6057 30.7401 30.3242V28.8842H28.7401V30.3242Z" fill="#003399"/>
<path d="M29.2068 29.6309C29.3172 29.6309 29.4068 29.5414 29.4068 29.4309C29.4068 29.3205 29.3172 29.2309 29.2068 29.2309C29.0963 29.2309 29.0068 29.3205 29.0068 29.4309C29.0068 29.5414 29.0963 29.6309 29.2068 29.6309Z" fill="white"/>
<path d="M30.3134 29.6309C30.4239 29.6309 30.5134 29.5414 30.5134 29.4309C30.5134 29.3205 30.4239 29.2309 30.3134 29.2309C30.203 29.2309 30.1134 29.3205 30.1134 29.4309C30.1134 29.5414 30.203 29.6309 30.3134 29.6309Z" fill="white"/>
<path d="M29.7534 30.1642C29.8639 30.1642 29.9534 30.0747 29.9534 29.9642C29.9534 29.8538 29.8639 29.7642 29.7534 29.7642C29.643 29.7642 29.5534 29.8538 29.5534 29.9642C29.5534 30.0747 29.643 30.1642 29.7534 30.1642Z" fill="white"/>
<path d="M29.2068 30.7243C29.3172 30.7243 29.4068 30.6347 29.4068 30.5242C29.4068 30.4138 29.3172 30.3242 29.2068 30.3242C29.0963 30.3242 29.0068 30.4138 29.0068 30.5242C29.0068 30.6347 29.0963 30.7243 29.2068 30.7243Z" fill="white"/>
<path d="M30.3134 30.7243C30.4239 30.7243 30.5134 30.6347 30.5134 30.5242C30.5134 30.4138 30.4239 30.3242 30.3134 30.3242C30.203 30.3242 30.1134 30.4138 30.1134 30.5242C30.1134 30.6347 30.203 30.7243 30.3134 30.7243Z" fill="white"/>
<path d="M34.2868 30.3242C34.2844 30.6057 34.3893 30.8774 34.5801 31.0843C34.6692 31.1838 34.778 31.2637 34.8997 31.3188C35.0214 31.3739 35.1532 31.403 35.2868 31.4043C35.5668 31.4043 35.8201 31.2709 35.9934 31.0843C36.1843 30.8774 36.2892 30.6057 36.2868 30.3242V28.8842H34.2868V30.3242Z" fill="#003399"/>
<path d="M34.7534 29.6309C34.8639 29.6309 34.9534 29.5414 34.9534 29.4309C34.9534 29.3205 34.8639 29.2309 34.7534 29.2309C34.643 29.2309 34.5534 29.3205 34.5534 29.4309C34.5534 29.5414 34.643 29.6309 34.7534 29.6309Z" fill="white"/>
<path d="M35.8601 29.6309C35.9706 29.6309 36.0601 29.5414 36.0601 29.4309C36.0601 29.3205 35.9706 29.2309 35.8601 29.2309C35.7496 29.2309 35.6601 29.3205 35.6601 29.4309C35.6601 29.5414 35.7496 29.6309 35.8601 29.6309Z" fill="white"/>
<path d="M35.3001 30.1642C35.4106 30.1642 35.5001 30.0747 35.5001 29.9642C35.5001 29.8538 35.4106 29.7642 35.3001 29.7642C35.1896 29.7642 35.1001 29.8538 35.1001 29.9642C35.1001 30.0747 35.1896 30.1642 35.3001 30.1642Z" fill="white"/>
<path d="M34.7534 30.7243C34.8639 30.7243 34.9534 30.6347 34.9534 30.5242C34.9534 30.4138 34.8639 30.3242 34.7534 30.3242C34.643 30.3242 34.5534 30.4138 34.5534 30.5242C34.5534 30.6347 34.643 30.7243 34.7534 30.7243Z" fill="white"/>
<path d="M35.8601 30.7243C35.9706 30.7243 36.0601 30.6347 36.0601 30.5242C36.0601 30.4138 35.9706 30.3242 35.8601 30.3242C35.7496 30.3242 35.6601 30.4138 35.6601 30.5242C35.6601 30.6347 35.7496 30.7243 35.8601 30.7243Z" fill="white"/>
<path d="M31.5134 33.7643C31.511 34.0457 31.6159 34.3174 31.8068 34.5243C31.8958 34.6238 32.0047 34.7037 32.1263 34.7588C32.248 34.8139 32.3799 34.843 32.5134 34.8443C32.7934 34.8443 33.0468 34.7109 33.2201 34.5243C33.411 34.3174 33.5158 34.0457 33.5134 33.7643V32.3243H31.5134V33.7643Z" fill="#003399"/>
<path d="M31.9801 33.0709C32.0906 33.0709 32.1801 32.9814 32.1801 32.8709C32.1801 32.7605 32.0906 32.6709 31.9801 32.6709C31.8696 32.6709 31.7801 32.7605 31.7801 32.8709C31.7801 32.9814 31.8696 33.0709 31.9801 33.0709Z" fill="white"/>
<path d="M33.0868 33.0709C33.1972 33.0709 33.2868 32.9814 33.2868 32.8709C33.2868 32.7605 33.1972 32.6709 33.0868 32.6709C32.9763 32.6709 32.8868 32.7605 32.8868 32.8709C32.8868 32.9814 32.9763 33.0709 33.0868 33.0709Z" fill="white"/>
<path d="M32.5268 33.6043C32.6372 33.6043 32.7268 33.5147 32.7268 33.4043C32.7268 33.2938 32.6372 33.2043 32.5268 33.2043C32.4163 33.2043 32.3268 33.2938 32.3268 33.4043C32.3268 33.5147 32.4163 33.6043 32.5268 33.6043Z" fill="white"/>
<path d="M31.9801 34.1643C32.0906 34.1643 32.1801 34.0747 32.1801 33.9643C32.1801 33.8538 32.0906 33.7643 31.9801 33.7643C31.8696 33.7643 31.7801 33.8538 31.7801 33.9643C31.7801 34.0747 31.8696 34.1643 31.9801 34.1643Z" fill="white"/>
<path d="M33.0868 34.1643C33.1972 34.1643 33.2868 34.0747 33.2868 33.9643C33.2868 33.8538 33.1972 33.7643 33.0868 33.7643C32.9763 33.7643 32.8868 33.8538 32.8868 33.9643C32.8868 34.0747 32.9763 34.1643 33.0868 34.1643Z" fill="white"/>
</g>
<defs>
<clipPath id="clip0_3_40">
<rect width="80" height="60" fill="white" transform="translate(0.5)"/>
</clipPath>
</defs>
</svg>
